<?xml version="1.0" encoding="UTF-8" standalone="no"?>
<svg
   xmlns:dc="http://purl.org/dc/elements/1.1/"
   xmlns:cc="http://creativecommons.org/ns#"
   xmlns:rdf="http://www.w3.org/1999/02/22-rdf-syntax-ns#"
   xmlns:svg="http://www.w3.org/2000/svg"
   xmlns="http://www.w3.org/2000/svg"
   version="1.1"
   id="svg5269"
   viewBox="0 0 90.000001 90.000001"
   height="90"
   width="90">
  <defs
     id="defs5271" />
  <metadata
     id="metadata5274">
    <rdf:RDF>
      <cc:Work
         rdf:about="">
        <dc:format>image/svg+xml</dc:format>
        <dc:type
           rdf:resource="http://purl.org/dc/dcmitype/StillImage" />
        <dc:title></dc:title>
      </cc:Work>
    </rdf:RDF>
  </metadata>
  <g
     transform="translate(-243.57143,-358.79078)"
     id="layer1">
    <path
       id="path5256"
       d="m 288.57143,358.79078 a 45,45 0 0 0 -45,45 45,45 0 0 0 45,45 45,45 0 0 0 45,-45 45,45 0 0 0 -45,-45 z m 0,14 0,0 c 12.4264,0 22.5,10.0737 22.5,22.5 -0.01,4.0204 -1.0944,7.9655 -3.1446,11.4238 -6.4496,-1.7403 -12.9997,-1.4612 -19.4023,0.8848 -3.3373,-1.2166 -6.7112,-1.9674 -10.0996,-2.0664 -0.3902,-0.014 -0.7818,-0.014 -1.1719,-0.014 -2.6963,0.026 -5.3882,0.4204 -8.0606,1.1582 -2.0357,-3.4502 -3.111,-7.3827 -3.121,-11.3887 0,-12.4264 10.0736,-22.5 22.5,-22.5 z m -8.1817,23.1817 c -1.5062,0 -2.7265,1.2223 -2.7265,2.7285 0,1.5062 1.2203,2.7265 2.7265,2.7265 1.5062,0 2.7266,-1.2203 2.7266,-2.7265 0,-1.5062 -1.2204,-2.7285 -2.7266,-2.7285 z m 16.3633,0 c -1.5062,0 -2.7266,1.2223 -2.7266,2.7285 0,1.5062 1.2204,2.7265 2.7266,2.7265 1.5062,0 2.7266,-1.2203 2.7266,-2.7265 0,-1.5062 -1.2204,-2.7285 -2.7266,-2.7285 z m -18.9473,12.2754 c 0.3548,0 0.7075,-3e-4 1.0625,0.01 2.7874,0.082 5.5715,0.6214 8.3399,1.5508 l 0,20.9824 -17.0957,0 c 1.3463,-1.4982 2.0857,-3.4387 2.0957,-5.4531 0,-4.5184 -3.663,-8.2754 -8.1817,-8.2754 -0.9297,0 -1.8531,0.1655 -2.7285,0.4785 l 0,-3.4472 c 5e-4,-0.4599 0.244,-0.886 0.6406,-1.1192 5.2335,-3.0796 10.5451,-4.6765 15.8672,-4.7265 z m 20.752,0.037 c 5.5761,-0.1068 11.1586,1.4602 16.6465,4.6894 0.3965,0.2332 0.6403,0.6593 0.6406,1.1192 l 0,3.4472 c -0.8753,-0.3132 -1.7988,-0.4785 -2.7285,-0.4785 -4.5187,0 -8.1817,3.7567 -8.1817,8.2754 0,2.0142 0.7494,3.9551 2.0957,5.4531 l -17.0957,0 0,-20.9922 c 2.8633,-0.9496 5.7431,-1.4586 8.6231,-1.5136 z m -34.5313,11.5976 c 3.0125,0 5.4532,2.4426 5.4532,5.4551 0,3.0124 -2.4407,5.4531 -5.4532,5.4531 -3.0125,0 -5.455,-2.4407 -5.455,-5.4531 0,-3.0125 2.4425,-5.4551 5.455,-5.4551 z m 49.0899,0 c 3.0125,0 5.4551,2.4426 5.4551,5.4551 0,3.0124 -2.4426,5.4531 -5.4551,5.4531 -3.0125,0 -5.4531,-2.4407 -5.4531,-5.4531 0,-3.0125 2.4406,-5.4551 5.4531,-5.4551 z"
       style="display:inline;opacity:1;fill:#5c8ece;fill-opacity:1;stroke:none;stroke-width:8;stroke-linecap:butt;stroke-linejoin:miter;stroke-miterlimit:4;stroke-dasharray:none;stroke-opacity:1" />
  </g>
</svg>
