<svg xmlns="http://www.w3.org/2000/svg" aria-hidden="true" style="position:absolute;width:0;height:0;overflow:hidden">
<defs>
<symbol id="icon-iconmonstr-eye-off-thin" viewBox="0 0 32 32">
<path d="M10.849 20.196A6.548 6.548 0 0 1 9.321 16a6.67 6.67 0 0 1 6.667-6.667c1.601 0 3.055.58 4.197 1.527l2.529-2.529c-1.921-.984-4.163-1.664-6.713-1.664-8.153 0-13.367 7.14-14.456 8.779.705 1.112 3.172 4.703 6.817 7.237l2.487-2.487zm8.392-8.392a5.23 5.23 0 0 0-3.253-1.137A5.335 5.335 0 0 0 10.655 16c0 1.231.432 2.353 1.139 3.252l7.448-7.448zm10.08-8.195L3.598 29.333l-.944-.943 4.731-4.731c-3.064-2.149-5.645-5.18-7.397-8.225C3.212 9.963 9.245 5.333 16.001 5.333c2.753 0 5.361.755 7.709 2.001l4.668-4.668.943.943zm-3.286 5.172-.979.979c2.981 2.159 4.837 4.805 5.415 5.699-.985 1.737-6.061 9.875-14.469 9.875-1.9 0-3.665-.491-5.268-1.251l-.997.997c1.967.989 4.076 1.587 6.265 1.587 7.032 0 13.011-5.341 15.999-11.248a21.629 21.629 0 0 0-5.965-6.637zM21.321 16c0-.739-.151-1.443-.423-2.083l.979-.979c.481.92.777 1.952.777 3.061a6.67 6.67 0 0 1-6.667 6.667c-1.109 0-2.139-.297-3.06-.777l.979-.98A5.335 5.335 0 0 0 21.32 16z"/>
</symbol>
<symbol id="icon-iconmonstr-eye-thin" stroke-width='3' viewBox="0 0 32 32">
<path d="M16.013 26.667C9.26 26.667 3.232 21.052 0 15.435 3.224 9.964 9.257 5.334 16.013 5.334c6.847 0 12.847 4.604 15.999 10.085-2.988 5.907-8.968 11.248-15.999 11.248zM1.557 15.445c1.124 1.775 6.691 9.888 14.456 9.888 8.407 0 13.483-8.137 14.468-9.873-1.029-1.597-6.141-8.793-14.468-8.793-8.155 0-13.367 7.14-14.456 8.779zM16 9.333c-3.68 0-6.667 2.987-6.667 6.667S12.32 22.667 16 22.667c3.68 0 6.667-2.987 6.667-6.667S19.68 9.333 16 9.333zm0 1.334c2.944 0 5.333 2.389 5.333 5.333S18.944 21.333 16 21.333 10.667 18.944 10.667 16s2.389-5.333 5.333-5.333z"/>
</symbol>
</defs>
</svg>