<svg xmlns="http://www.w3.org/2000/svg" aria-hidden="true" style="position:absolute;width:0;height:0;overflow:hidden"><defs><symbol id="icon-auth-user" viewBox="0 0 32 32"><path fill="#f6f6f6" d="M32 16c0 8.837-7.163 16-16 16S0 24.837 0 16 7.163 0 16 0s16 7.163 16 16z" style="fill:var(--color1, #f6f6f6)"/><path fill="#4f2ee8" d="M10.522 22.847a5.477 5.477 0 1 1 10.954 0H10.521zM16 16.685c-2.27 0-4.108-1.838-4.108-4.108S13.73 8.469 16 8.469c2.27 0 4.108 1.838 4.108 4.108S18.27 16.685 16 16.685z" style="fill:var(--color2, #4f2ee8)"/></symbol><symbol id="icon-down-drop" viewBox="0 0 60 32"><path fill="#fff" d="M3.167 3h53.667L32.711 30.27c-.719.812-1.694 1.269-2.71 1.269s-1.991-.456-2.71-1.269L3.168 3z" style="fill:var(--color3, #fff)"/></symbol></defs></svg>