<svg aria-hidden="true" style="position: absolute; width: 0; height: 0; overflow: hidden;" version="1.1" xmlns="http://www.w3.org/2000/svg" xmlns:xlink="http://www.w3.org/1999/xlink">

<defs>

<symbol id="icon-button-close" viewBox="0 0 32 32">
<path d="M32 3.2l-3.2-3.2-12.8 12.8-12.8-12.8-3.2 3.2 12.8 12.8-12.8 12.8 3.2 3.2 12.8-12.8 12.8 12.8 3.2-3.2-12.8-12.8 12.8-12.8z"></path>
</symbol>

<symbol id="icon-lock" fill="none" xmlns="http://www.w3.org/2000/svg" viewBox="0 0 28 28">
<path d="M17.8333 10.8333V7.33333C17.8333 4.11167 15.2217 1.5 12 1.5C8.77834 1.5 6.16667 4.11167 6.16667 7.33333V10.8333M7.1 22.5H16.9C18.8602 22.5 19.8403 22.5 20.589 22.1185C21.2475 21.783 21.783 21.2475 22.1185 20.589C22.5 19.8403 22.5 18.8602 22.5 16.9V16.4333C22.5 14.4731 22.5 13.4931 22.1185 12.7444C21.783 12.0858 21.2475 11.5504 20.589 11.2148C19.8403 10.8333 18.8602 10.8333 16.9 10.8333H7.1C5.13982 10.8333 4.15972 10.8333 3.41103 11.2148C2.75247 11.5504 2.21703 12.0858 1.88148 12.7444C1.5 13.4931 1.5 14.4731 1.5 16.4333V16.9C1.5 18.8602 1.5 19.8403 1.88148 20.589C2.21703 21.2475 2.75247 21.783 3.41103 22.1185C4.15972 22.5 5.13982 22.5 7.1 22.5Z" stroke="#111111" stroke-width="2" stroke-linecap="round" stroke-linejoin="round"></path>
</symbol>

  <symbol id="icon-mail" fill="none" xmlns="http://www.w3.org/2000/svg" viewBox="0 0 28 28" >
    <path d="M25.0832 21L17.3333 14M10.6666 14L2.91663 21M2.33325 8.16669L11.859 14.8347C12.6304 15.3747 13.016 15.6446 13.4356 15.7492C13.8061 15.8416 14.1937 15.8416 14.5643 15.7492C14.9838 15.6446 15.3695 15.3747 16.1408 14.8347L25.6666 8.16669M7.93325 23.3334H20.0666C22.0268 23.3334 23.0069 23.3334 23.7556 22.9519C24.4141 22.6163 24.9496 22.0809 25.2851 21.4223C25.6666 20.6736 25.6666 19.6935 25.6666 17.7334V10.2667C25.6666 8.3065 25.6666 7.32641 25.2851 6.57772C24.9496 5.91915 24.4141 5.38372 23.7556 5.04816C23.0069 4.66669 22.0268 4.66669 20.0666 4.66669H7.93325C5.97307 4.66669 4.99298 4.66669 4.24429 5.04816C3.58572 5.38372 3.05029 5.91915 2.71473 6.57772C2.33325 7.32641 2.33325 8.3065 2.33325 10.2667V17.7334C2.33325 19.6935 2.33325 20.6736 2.71473 21.4223C3.05029 22.0809 3.58572 22.6163 4.24429 22.9519C4.99298 23.3334 5.97307 23.3334 7.93325 23.3334Z" stroke="#111111" stroke-width="2" stroke-linecap="round" stroke-linejoin="round"></path>
  </symbol>

</defs>
</svg>